<?xml version="1.0" encoding="UTF-8" standalone="no"?>
<!-- Created with Inkscape (http://www.inkscape.org/) -->

<svg
   width="27.091108mm"
   height="25.899328mm"
   viewBox="0 0 27.091108 25.899328"
   version="1.1"
   id="svg1"
   inkscape:export-filename="linkedin.svg"
   inkscape:export-xdpi="96"
   inkscape:export-ydpi="96"
   xmlns:inkscape="http://www.inkscape.org/namespaces/inkscape"
   xmlns:sodipodi="http://sodipodi.sourceforge.net/DTD/sodipodi-0.dtd"
   xmlns="http://www.w3.org/2000/svg"
   xmlns:svg="http://www.w3.org/2000/svg">
  <sodipodi:namedview
     id="namedview1"
     pagecolor="#ffffff"
     bordercolor="#000000"
     borderopacity="0.25"
     inkscape:showpageshadow="2"
     inkscape:pageopacity="0.0"
     inkscape:pagecheckerboard="0"
     inkscape:deskcolor="#d1d1d1"
     inkscape:document-units="mm"
     inkscape:zoom="0.72604517"
     inkscape:cx="397.3582"
     inkscape:cy="561.25984"
     inkscape:window-width="1920"
     inkscape:window-height="1017"
     inkscape:window-x="-8"
     inkscape:window-y="1060"
     inkscape:window-maximized="1"
     inkscape:current-layer="layer1">
    <inkscape:page
       x="-9.8319052e-18"
       y="0"
       width="27.091106"
       height="25.899328"
       id="page2"
       margin="0"
       bleed="0" />
  </sodipodi:namedview>
  <defs
     id="defs1" />
  <g
     inkscape:label="Layer 1"
     inkscape:groupmode="layer"
     id="layer1"
     transform="translate(0.66146001,0.66145997)">
    <path
       style="fill:none;stroke:#000000;stroke-width:1.32292;stroke-linecap:round;stroke-linejoin:round"
       d="M 20.5,2 H 3.5 A 1.5,1.5 0 0 0 2,3.5 v 17 A 1.5,1.5 0 0 0 3.5,22 h 17 A 1.5,1.5 0 0 0 22,20.5 V 3.5 A 1.5,1.5 0 0 0 20.5,2 Z M 8,19 H 5 V 10 H 8 Z M 6.5,8.25 A 1.75,1.75 0 1 1 8.3,6.5 1.78,1.78 0 0 1 6.5,8.25 Z M 19,19 h -3 v -4.74 c 0,-1.42 -0.6,-1.93 -1.38,-1.93 A 1.74,1.74 0 0 0 13,14.19 0.66,0.66 0 0 0 13,14.33 V 19 h -3 v -9 h 2.9 v 1.3 a 3.11,3.11 0 0 1 2.7,-1.4 c 1.55,0 3.36,0.86 3.36,3.66 z"
       id="path1" />
  </g>
</svg>
